<svg xmlns="http://www.w3.org/2000/svg" width="32" height="32" viewBox="0 0 32 32" fill="none">
  <defs>
    <linearGradient id="gradient1" x1="0%" y1="0%" x2="100%" y2="100%">
      <stop offset="0%" stop-color="#4CAF50" />
      <stop offset="100%" stop-color="#2E7D32" />
    </linearGradient>
    <linearGradient id="gradient2" x1="0%" y1="0%" x2="100%" y2="100%">
      <stop offset="0%" stop-color="#66BB6A" />
      <stop offset="100%" stop-color="#43A047" />
    </linearGradient>
  </defs>
  
  <!-- Background circle -->
  <circle cx="16" cy="16" r="15" fill="url(#gradient1)" stroke="#E8F5E9" stroke-width="1" />
  
  <!-- Hands symbol -->
  <path d="M16 7C14.5 7 13.25 8.25 13.25 9.75C13.25 10.5 13.5 11.25 14 11.75L16 13.75L18 11.75C18.5 11.25 18.75 10.5 18.75 9.75C18.75 8.25 17.5 7 16 7Z" fill="#E8F5E9" />
  
  <path d="M22 14.5C20.75 13.25 19 13.25 17.75 14.5L16 16.25L14.25 14.5C13 13.25 11.25 13.25 10 14.5C8.75 15.75 8.75 17.5 10 18.75L16 24.75L22 18.75C23.25 17.5 23.25 15.75 22 14.5Z" fill="#E8F5E9" />
  
  <!-- Text "H" for HandsOn -->
  <path d="M14 20H12V16H14V18H18V16H20V20H18V20H14Z" fill="url(#gradient2)" />
</svg> 